<?xml version="1.0" encoding="UTF-8"?>
<svg width="32px" height="30px" viewBox="0 0 32 30" version="1.1" xmlns="http://www.w3.org/2000/svg" xmlns:xlink="http://www.w3.org/1999/xlink">
    <!-- Generator: Sketch 52.6 (67491) - http://www.bohemiancoding.com/sketch -->
    <title>UX</title>
    <desc>Created with Sketch.</desc>
    <g id="Page-1" stroke="none" stroke-width="1" fill="none" fill-rule="evenodd">
        <g id="Software" transform="translate(-625.000000, -1487.000000)" fill="#000000">
            <g id="Ofrecemos" transform="translate(120.000000, 1358.000000)">
                <g id="UX" transform="translate(370.000000, 99.000000)">
                    <path d="M149.12,30.52 L149.12,52.6 C149.12,53.533338 148.953335,54.3933294 148.62,55.18 C148.286665,55.9666706 147.813336,56.6666636 147.2,57.28 C146.586664,57.8933364 145.880004,58.3733316 145.08,58.72 C144.279996,59.0666684 143.426671,59.24 142.52,59.24 C141.613329,59.24 140.766671,59.0666684 139.98,58.72 C139.193329,58.3733316 138.493336,57.8933364 137.88,57.28 C137.266664,56.6666636 136.786668,55.9666706 136.44,55.18 C136.093332,54.3933294 135.92,53.533338 135.92,52.6 L135.92,30.52 L140,30.52 L140,52.2 C140,53.2133384 140.239998,53.9599976 140.72,54.44 C141.200002,54.9200024 141.799996,55.16 142.52,55.16 C143.240004,55.16 143.839998,54.9200024 144.32,54.44 C144.800002,53.9599976 145.04,53.2133384 145.04,52.2 L145.04,30.52 L149.12,30.52 Z M150.96,59 L156.72,44.08 L151.4,30.52 L155.72,30.52 L158.8,38.96 L161.92,30.52 L166.24,30.52 L160.8,44.08 L166.68,59 L162.36,59 L158.8,49.4 L155.28,59 L150.96,59 Z"></path>
                </g>
            </g>
        </g>
    </g>
</svg>