<?xml version="1.0" encoding="UTF-8"?>
<svg width="32px" height="32px" viewBox="0 0 32 32" version="1.1" xmlns="http://www.w3.org/2000/svg" xmlns:xlink="http://www.w3.org/1999/xlink">
    <!-- Generator: Sketch 52.6 (67491) - http://www.bohemiancoding.com/sketch -->
    <title>Shape</title>
    <desc>Created with Sketch.</desc>
    <g id="Page-1" stroke="none" stroke-width="1" fill="none" fill-rule="evenodd">
        <g id="Contpaq" transform="translate(-1214.000000, -2663.000000)" fill="#FFFFFF" fill-rule="nonzero">
            <path d="M1241.20714,2667.65 C1238.21429,2664.65 1234.22857,2663 1229.99286,2663 C1221.25,2663 1214.13571,2670.11429 1214.13571,2678.85714 C1214.13571,2681.65 1214.86429,2684.37857 1216.25,2686.78571 L1214,2695 L1222.40714,2692.79286 C1224.72143,2694.05714 1227.32857,2694.72143 1229.98571,2694.72143 L1229.99286,2694.72143 C1238.72857,2694.72143 1246,2687.60714 1246,2678.86429 C1246,2674.62857 1244.2,2670.65 1241.20714,2667.65 Z M1229.99286,2692.05 C1227.62143,2692.05 1225.3,2691.41429 1223.27857,2690.21429 L1222.8,2689.92857 L1217.81429,2691.23571 L1219.14286,2686.37143 L1218.82857,2685.87143 C1217.50714,2683.77143 1216.81429,2681.35 1216.81429,2678.85714 C1216.81429,2671.59286 1222.72857,2665.67857 1230,2665.67857 C1233.52143,2665.67857 1236.82857,2667.05 1239.31429,2669.54286 C1241.8,2672.03571 1243.32857,2675.34286 1243.32143,2678.86429 C1243.32143,2686.13571 1237.25714,2692.05 1229.99286,2692.05 Z M1237.22143,2682.17857 C1236.82857,2681.97857 1234.87857,2681.02143 1234.51429,2680.89286 C1234.15,2680.75714 1233.88571,2680.69286 1233.62143,2681.09286 C1233.35714,2681.49286 1232.6,2682.37857 1232.36429,2682.65 C1232.13571,2682.91429 1231.9,2682.95 1231.50714,2682.75 C1229.17857,2681.58571 1227.65,2680.67143 1226.11429,2678.03571 C1225.70714,2677.33571 1226.52143,2677.38571 1227.27857,2675.87143 C1227.40714,2675.60714 1227.34286,2675.37857 1227.24286,2675.17857 C1227.14286,2674.97857 1226.35,2673.02857 1226.02143,2672.23571 C1225.7,2671.46429 1225.37143,2671.57143 1225.12857,2671.55714 C1224.9,2671.54286 1224.63571,2671.54286 1224.37143,2671.54286 C1224.10714,2671.54286 1223.67857,2671.64286 1223.31429,2672.03571 C1222.95,2672.43571 1221.92857,2673.39286 1221.92857,2675.34286 C1221.92857,2677.29286 1223.35,2679.17857 1223.54286,2679.44286 C1223.74286,2679.70714 1226.33571,2683.70714 1230.31429,2685.42857 C1232.82857,2686.51429 1233.81429,2686.60714 1235.07143,2686.42143 C1235.83571,2686.30714 1237.41429,2685.46429 1237.74286,2684.53571 C1238.07143,2683.60714 1238.07143,2682.81429 1237.97143,2682.65 C1237.87857,2682.47143 1237.61429,2682.37143 1237.22143,2682.17857 Z" id="Shape"></path>
        </g>
    </g>
</svg>